<?xml version="1.0" encoding="UTF-8"?><svg xmlns="http://www.w3.org/2000/svg" xmlns:xlink="http://www.w3.org/1999/xlink" contentScriptType="text/ecmascript" width="375" zoomAndPan="magnify" contentStyleType="text/css" viewBox="0 0 375 374.999991" height="374.999991" preserveAspectRatio="xMidYMid meet" version="1.0"><defs><clipPath id="clip-0"><path d="M 77.71875 69.136719 L 252 69.136719 L 252 244 L 77.71875 244 Z M 77.71875 69.136719 " clip-rule="nonzero"/></clipPath><clipPath id="clip-1"><path d="M 123 132 L 297.46875 132 L 297.46875 306.136719 L 123 306.136719 Z M 123 132 " clip-rule="nonzero"/></clipPath><clipPath id="clip-2"><path d="M 272 71 L 297.46875 71 L 297.46875 167 L 272 167 Z M 272 71 " clip-rule="nonzero"/></clipPath><clipPath id="clip-3"><path d="M 77.71875 271 L 112 271 L 112 306.136719 L 77.71875 306.136719 Z M 77.71875 271 " clip-rule="nonzero"/></clipPath></defs><g clip-path="url(#clip-0)"><path fill="rgb(91.758728%, 26.269531%, 20.779419%)" d="M 164.683594 218.429688 L 251.742188 218.429688 L 251.742188 243.328125 L 164.683594 243.328125 C 140.695312 243.328125 120.210938 234.789062 103.230469 217.804688 C 86.25 200.816406 77.714844 180.324219 77.714844 156.238281 L 77.714844 69.238281 L 102.601562 69.238281 L 102.601562 156.238281 C 102.601562 173.492188 108.621094 188.054688 120.75 200.1875 C 132.878906 212.320312 147.523438 218.429688 164.683594 218.429688 " fill-opacity="1" fill-rule="nonzero"/></g><g clip-path="url(#clip-1)"><path fill="rgb(20.388794%, 65.879822%, 32.548523%)" d="M 210.503906 156.867188 L 123.535156 156.867188 L 123.535156 132.0625 L 210.503906 132.0625 C 234.582031 132.0625 255.066406 140.507812 271.957031 157.496094 C 289.03125 174.484375 297.472656 194.976562 297.472656 219.0625 L 297.472656 306.058594 L 272.585938 306.058594 L 272.585938 219.0625 C 272.585938 201.894531 266.566406 187.246094 254.4375 175.113281 C 242.308594 162.980469 227.664062 156.867188 210.503906 156.867188 " fill-opacity="1" fill-rule="nonzero"/></g><g clip-path="url(#clip-2)"><path fill="rgb(91.758728%, 26.269531%, 20.779419%)" d="M 272.585938 71.125 L 297.472656 71.125 L 297.472656 166.664062 C 293.25 159.832031 288.128906 153.449219 282.109375 147.339844 C 279.054688 144.285156 275.910156 141.5 272.585938 138.890625 L 272.585938 71.125 " fill-opacity="1" fill-rule="evenodd"/></g><g clip-path="url(#clip-3)"><path fill="rgb(20.388794%, 65.879822%, 32.548523%)" d="M 94.785156 306.058594 C 104.21875 306.058594 111.855469 298.421875 111.855469 288.980469 C 111.855469 279.546875 104.21875 271.90625 94.785156 271.90625 C 85.441406 271.90625 77.714844 279.546875 77.714844 288.980469 C 77.714844 298.421875 85.441406 306.058594 94.785156 306.058594 " fill-opacity="1" fill-rule="evenodd"/></g></svg>